<svg width="256" height="256" viewBox="0 0 256 256" fill="none" xmlns="http://www.w3.org/2000/svg">
  <defs>
    <linearGradient id="bg" x1="30" y1="24" x2="226" y2="232" gradientUnits="userSpaceOnUse">
      <stop stop-color="#0694A2"/>
      <stop offset="1" stop-color="#0F4C81"/>
    </linearGradient>
    <radialGradient id="glow" cx="0" cy="0" r="1" gradientUnits="userSpaceOnUse" gradientTransform="translate(111 82) rotate(49.8) scale(191.712)">
      <stop stop-color="white" stop-opacity="0.36"/>
      <stop offset="1" stop-color="white" stop-opacity="0"/>
    </radialGradient>
  </defs>
  <rect x="24" y="32" width="208" height="208" rx="54" fill="#07101D" fill-opacity="0.18"/>
  <rect x="20" y="20" width="216" height="216" rx="54" fill="url(#bg)"/>
  <rect x="20" y="20" width="216" height="216" rx="54" fill="url(#glow)"/>
  <path d="M128 54L185 77L181 139L128 196L75 139L71 77L128 54Z" stroke="white" stroke-width="10" stroke-linejoin="round"/>
  <path d="M92 145L117 118L142 136L168 104" stroke="#102A43" stroke-width="16" stroke-linecap="round" stroke-linejoin="round" opacity="0.7"/>
  <path d="M92 145L117 118L142 136L168 104" stroke="#FFF5EB" stroke-width="9" stroke-linecap="round" stroke-linejoin="round"/>
  <circle cx="92" cy="145" r="11" fill="#FFA84C"/>
  <circle cx="117" cy="118" r="11" fill="#FFA84C"/>
  <circle cx="142" cy="136" r="11" fill="#FFA84C"/>
  <circle cx="168" cy="104" r="11" fill="#FFA84C"/>
  <circle cx="92" cy="145" r="4.5" fill="#FFF2E6"/>
  <circle cx="117" cy="118" r="4.5" fill="#FFF2E6"/>
  <circle cx="142" cy="136" r="4.5" fill="#FFF2E6"/>
  <circle cx="168" cy="104" r="4.5" fill="#FFF2E6"/>
  <path d="M88 144C90 128 101 115 117 109C132 103 149 107 161 120" stroke="white" stroke-opacity="0.72" stroke-width="6" stroke-linecap="round"/>
  <path d="M105 145C107 136 114 128 124 124C133 120 144 122 152 130" stroke="white" stroke-opacity="0.72" stroke-width="6" stroke-linecap="round"/>
  <path d="M42 88C55 78 72 72 90 72" stroke="white" stroke-opacity="0.22" stroke-width="4" stroke-linecap="round"/>
</svg>
